<svg  viewBox="0 0 1050 1050"  xmlns="http://www.w3.org/2000/svg">
<path d="M100 400H400V300H200V200H400L500 300V500H0V100L100 0H500V100H100V400Z" fill="#5AB054"/>
<path d="M1050 300V500H650L550 400V0H750L850 100H650V400H950V300H750V200H950L1050 300Z" fill="#5AB054"/>
<path d="M100 650V750H440C447.879 750 455.681 751.552 462.961 754.567C470.241 757.582 476.855 762.002 482.426 767.574C487.998 773.145 492.417 779.759 495.433 787.039C498.448 794.319 500 802.121 500 810V990C500 997.879 498.448 1005.68 495.433 1012.96C492.417 1020.24 487.998 1026.85 482.426 1032.43C476.855 1038 470.241 1042.42 462.961 1045.43C455.681 1048.45 447.879 1050 440 1050H300L200 950H400V850H100L0 750V550H500V650H100Z" fill="#3373B7"/>
<path d="M1050 650V550H650L550 650V990C550 1005.91 556.321 1021.17 567.574 1032.43C578.826 1043.68 594.087 1050 610 1050H950L1050 950V810C1050 794.087 1043.68 778.826 1032.43 767.574C1021.17 756.321 1005.91 750 990 750H650V650H1050ZM950 850V950H650V850H950Z" fill="#FBB33F"/>
</svg>
